# xmcd
#
# Track frame offsets: 
#        150
#        17095
#        41785
#        61567
#        80782
#        101070
#        120075
#        139505
#        162985
#        181807
#        205530
#
# Disc length: 3411 seconds
#
# Revision: 2
# Processed by: cddbd v1.5.2PL0 Copyright (c) Steve Scherf et al.
# Submitted via: ExactAudioCopyFreeDBPlugin 1.0
#
DISCID=830d510b
DTITLE=The Chuck Hall Band - III
DYEAR=1998
DGENRE=Blues
TTITLE0=I Didn´t Get It
TTITLE1=She Could be the Blues
TTITLE2=Pick Up the Telephone
TTITLE3=Here Comes the Heartbreak
TTITLE4=Tema de los Juñeros
TTITLE5=Pollyanna
TTITLE6=Boat Song
TTITLE7=Travellin' South
TTITLE8=Baby Please Come Back
TTITLE9=Back Door Man
TTITLE10=Hey Joe
EXTD=
EXTT0=
EXTT1=
EXTT2=
EXTT3=
EXTT4=
EXTT5=
EXTT6=
EXTT7=
EXTT8=
EXTT9=
EXTT10=
PLAYORDER=
